<svg xmlns="http://www.w3.org/2000/svg" version="1.1" viewBox="0 0 1080 970" width="128" height="128">
  <!-- Generator: Adobe Illustrator 29.7.1, SVG Export Plug-In . SVG Version: 2.1.1 Build 8)  -->
  <g id="freddy-black">
    <path d="M542.48,565.92c.05.08.09.17.14.26.11-.04.23-.09.34-.13-.16-.04-.32-.08-.48-.13Z"/>
    <path d="M1048.87,191.76l-.02-.04c-81.19,6.23-117.6,78.16-169.73,129.07-7.26,6.68-14.8,13.02-23.84,17.18-20.34,11.63-62.21,7.42-57.81-22.46,8.33-40.71,37.94-74.03,69.64-99.34-16.11-11.46-38.66-1.34-55.93,2.82-53.55,16.22-90.4,62.4-112.97,111.55-20.74,38.47-23.04,85.49-51.06,120.12-17.75,21.79-52.37,39.54-77.34,18.96-31.53-31.59,40.67-78.12,62.42-95.53,43.31-33.9,70.11-88.4,66.56-143.7-.43-4.83-3.18-56.41-11.69-35.85-8.09,20.83-19.53,40.28-34.18,57.17-38.44,48.34-111.84,35.63-46-24.5,73.31-46.66,178.02-98.64,170.12-200.46-69.03,99.47-175.55,75.05-259.16,141.81-30.78,24.09-42.82,62.68-55.79,98-9.96,24.84-15.6,53.62-36.5,71.99-10.77,12.15-34.26,11.82-34.25-7.93,1.5-16.1,12.6-29.26,19.88-43.18,21.11-37.5,24.55-67.38,6.8-107.31-24.98,60.15-83.3,59.11-113.92,122.9-9.48,17.59-15.76,36.64-21.8,55.65-3.21,17.38-15.78,31.05-32.38,36.58-23.66,8.69-46.17,19.77-67.62,32.97-84.67,50.57-148.92,140.52-146.39,241.82.16,119.59,84.63,232.97,199.35,266.95,60.15,18.6,126.32,13.3,184.89-8.64,52.06-20.02,90.89-61.41,128.77-100.74,15.75-16.47,34.89-24.47,57.59-23.97,62.8,6.71,97.18-9.96,130.95-64.05,21.42-41.34,45.88-69.15,90-86.81-35.61-17.92-79.87-2.77-109.27,20.99-14.55,13.24-57.1,35.88-60.65,3.05,3-33.01,41.15-45.5,69.02-50.74,84.89-13.41,172.54-58.5,169.17-155.96-1.23-2.48-2.21-2.67-3.68-.47-7.26,10.83-16.06,20.15-26.51,27.99-19.1,14.6-48.05,25.14-68.57,7.44-8.4-6.95-5.89-19.98-.08-27.74,19.57-25.89,55.6-25.71,85.07-28.37,27.09-1.44,56.8-9.69,69.67-35.91,12.2-26.2,12.55-56.02,21.58-83.33,6.97-23.45,15.28-46.68,26.93-68.22,12.51-23.56,27.63-45.28,46.72-64.08,1.16-1.13,2.16-2.46,3.06-3.82.68-1.02.02-1.8-1.05-1.86ZM944.25,350.29c-5.89,17.77-5.68,37.97-15.86,54.09-17.1,23.56-49.06,20.99-74.94,22.21-20.1,1.04-39.4,6.49-57.52,15.4-27.13,11.49-50.56,43.56-33.05,72.17,20.81,30.44,68.49,28.11,97.95,12.04-30.15,65.13-135.04,56.58-191.61,89.03-33.53,15.35-59.82,56.04-40.49,91.72,15.58,27.6,46.25,26.71,70.28,10.3,19.57-11.3,35.23-29.47,55.17-39.53-9.44,18.09-24.6,36.04-37.62,52.32-21.91,24.97-50.14,51.89-85.98,48.48-45.57-6.36-72.79-6.87-104.81,30.94-45.96,58.88-113.31,102.77-188.92,108.93-159.18,14.93-309.77-137.01-266.85-297.42,23.29-91.86,80.91-152,166.89-188.76,106.36-42.33,51.31-93.15,119.47-152.79,16.93-15.28,35.84-28.27,52.42-43.94.43.23.88.47,1.31.7-2.18,20.5-12.74,38.78-23.94,55.56-8.37,12.05-17.7,23.91-21.43,38.36-8.19,25.48,2.28,67.37,36.28,59.9,66.88-25.32,69.75-109.75,103.53-163.33,48.33-91.2,170.91-75.78,240.23-140.78-27.07,61.98-97.87,86.83-150.49,122.93-16.97,11.83-33.56,25.99-43.05,44.67-13.24,23.12-4.28,56.6,26.91,59.41,40.95,1.89,72.33-29.11,97.87-57.28.57,76.01-90.41,102.82-127.81,157.83-13.71,18.08-24.85,45.73-15.1,66.56,15.6,38.52,66.48,37.98,97.77,20.03,25.93-13.72,44.31-38.48,55.82-65.01,29.75-68.96,45.62-166.27,126.66-191.88-23.03,29.18-57.74,68.95-36.28,107.78,26.89,37.51,84.98,24.05,114.44-3.71,37.28-33.14,54.33-84.28,95.47-113.57l-.03-.07c.38-.23.84-.4,1.81-.86-21.73,36.3-33.35,77.09-44.49,117.57Z"/>
    <polygon points="542.62 566.18 542.62 566.18 542.62 566.18 542.62 566.18" fill="#f83e2f"/>
    <path d="M542.62,566.18c.11-.04.23-.09.34-.13-.16-.04-.32-.08-.48-.13.05.08.09.17.14.26Z" fill="#fffc45"/>
    <path d="M542.96,566.05c-.16-.04-.32-.08-.48-.13,0,0,0,0,0,.01.16.04.32.08.47.12h0Z" fill="none"/>
    <path d="M542.96,566.05c-.16-.04-.32-.08-.47-.12.05.08.09.16.13.25.11-.04.23-.09.34-.13Z"/>
    <path d="M319.64,659.75c11.91,37.6-.99,63.92-20.69,76.2,20.92-.18,41.23-13.06,50.3-31.91s6.47-42.76-6.44-59.22l-23.17,14.93Z" fill="none"/>
  </g>
  <g id="freddy-red">
    <path d="M986.93,233.58l.03.07c-41.14,29.29-58.19,80.43-95.47,113.57-29.46,27.76-87.56,41.22-114.44,3.71-21.46-38.83,13.25-78.6,36.28-107.78-81.04,25.61-96.91,122.92-126.66,191.88-11.51,26.53-29.89,51.29-55.82,65.01-31.29,17.95-82.17,18.49-97.77-20.03-9.75-20.83,1.39-48.47,15.1-66.56,37.4-55.01,128.38-81.82,127.81-157.83-25.54,28.17-56.92,59.17-97.87,57.28-31.18-2.81-40.15-36.29-26.91-59.41,9.49-18.68,26.08-32.84,43.05-44.67,52.62-36.1,123.43-60.95,150.49-122.93-69.32,65-191.9,49.58-240.23,140.78-33.78,53.58-36.65,138.01-103.53,163.33-33.99,7.47-44.46-34.41-36.28-59.9,3.73-14.45,13.07-26.31,21.43-38.36,11.2-16.78,21.76-35.06,23.94-55.56-.43-.23-.88-.47-1.31-.7-16.58,15.67-35.49,28.66-52.42,43.94-68.16,59.64-13.11,110.46-119.47,152.79-85.98,36.76-143.6,96.9-166.89,188.76-42.92,160.41,107.67,312.35,266.85,297.42,75.61-6.16,142.96-50.05,188.92-108.93,32.02-37.81,59.24-37.3,104.81-30.94,35.84,3.41,64.07-23.51,85.98-48.48,13.02-16.28,28.18-34.23,37.62-52.32-19.94,10.06-35.6,28.23-55.17,39.53-24.03,16.41-54.7,17.3-70.28-10.3-19.33-35.68,6.96-76.36,40.49-91.72,56.57-32.45,161.46-23.9,191.61-89.03-29.46,16.07-77.14,18.4-97.95-12.04-17.5-28.61,5.92-60.68,33.05-72.17,18.12-8.91,37.42-14.36,57.52-15.4,25.88-1.22,57.84,1.35,74.94-22.21,10.18-16.12,9.97-36.32,15.86-54.09,11.14-40.48,22.76-81.28,44.49-117.57-.97.46-1.43.63-1.81.86ZM772.48,560.23c-22.8,5.52-45.61,11.03-68.41,16.54h0c-36.86,8.92-67.88,19.46-94,47.67-41.02,36.04-36.41,131.96,31.69,125.3-7.3,8.83-20.06,10.96-31.48,10-54.97-14.57-81.01,12.88-117.25,48.67-33.17,29.91-67.4,59.96-109.94,75.17C85.25,980.31-36.22,564.42,240.67,451.97c79.81-26.15,64.28-48.46,103.72-106.63-12.34,37.9,21.09,86.4,63.02,74.89,76.76-21.46,58.69-115.15,113.45-151.79-17.45,21.81-23.47,75.83,10.13,85.26,8.34,1.86,16.97-.6,25.16-3.03,15.74-4.67,31.48-9.35,47.22-14.03-202.5,95.68-101.71,285.07,50.78,173.06,33.96-22.66,62.32-53.74,81.6-89.74-2.67,20.43-8.94,38.76-17.44,57.4-24.57,48.01,2.15,83.17,54.17,82.87Z" fill="#f83e2f"/>
  </g>
  <g id="freddy-yellow">
    <path d="M718.31,477.36c8.5-18.64,14.77-36.97,17.44-57.4-19.28,36-47.64,67.08-81.6,89.74-152.49,112.01-253.28-77.38-50.78-173.06-15.74,4.68-31.48,9.36-47.22,14.03-8.19,2.43-16.82,4.89-25.16,3.03-33.6-9.43-27.58-63.45-10.13-85.26-54.76,36.64-36.69,130.32-113.45,151.79-41.93,11.52-75.36-36.99-63.02-74.89-39.44,58.17-23.91,80.48-103.72,106.63-276.88,112.45-155.41,528.34,142.42,431.61,42.55-15.21,76.77-45.26,109.94-75.17,36.24-35.79,62.29-63.23,117.25-48.67,11.42.96,24.18-1.17,31.48-10-68.1,6.66-72.7-89.25-31.69-125.3,26.12-28.21,57.14-38.75,94-47.66h0c22.8-5.52,45.61-11.03,68.41-16.55-52.02.29-78.74-34.86-54.17-82.87ZM258.92,619.25c21.26-7.71,39.57-21.54,56.19-36.55,33.07-31.14,78.48-76.7,127.13-51.21-36.88,7.38-64.68,33.48-90.86,58.69-23.88,22.64-58.94,44.3-92.61,31.52h-.01c-1.56-.35-1.11-2.35.16-2.45ZM206.5,527.47c-9.31,10.64-20.35,20.63-25.46,34.11-11.51,26.48,1.1,55.65,30.28,62.08-17.83,4.95-37.09-2.19-51.4-13.1h-.01c-36.48-32.79,18.03-69.33,46.59-83.09ZM122.98,605.44c21.1,58.82,93.64,77.83,148.16,60.03,91.73-25.77,168.22-127.08,271.35-99.54,0,0,0,0,0-.01.16.05.32.09.48.13h0s0,0,0,0c-76.29,28.38-115.26,108.47-177.62,156.03-38.45,29.33-101.55,53.78-141.77,16.37-9.19-8.54-33.66-40.98-25.27-55.17-14.96,25.29-56.56,42.27-78.28,16.23h-.01c-19.85-26.98-13.09-66.72,2.97-94.07ZM523.65,679.67c-39.95,48.62-60.24,113.13-113.9,150.18-102.92,82.82-286.48,30.3-306.48-106.83-1.45-10.42,2.82-5.68,6.85-1.31,10.89,10.86,21.88,21.59,33.95,31.17,79.46,65.82,209.11,53.25,275.46-25.23,36.78-39.83,85.6-79.96,142.67-80.28-15.74,4.84-28.4,20.4-38.55,32.3Z" fill="#fffc45"/>
  </g>
  <g id="freddy-eyes-outline">
    <path d="M258.76,621.71h.01c33.67,12.77,68.73-8.89,92.61-31.53,26.18-25.21,53.98-51.31,90.86-58.69-48.65-25.49-94.06,20.07-127.13,51.21-16.62,15.01-34.93,28.84-56.19,36.55-1.27.1-1.72,2.1-.16,2.46Z"/>
    <path d="M159.91,610.56h.01c14.31,10.91,33.57,18.05,51.4,13.1-29.18-6.43-41.79-35.6-30.28-62.08,5.11-13.47,16.14-23.47,25.46-34.11-28.56,13.76-83.07,50.3-46.59,83.09Z"/>
    <path d="M419.53,727.65c-66.35,78.48-196,91.05-275.46,25.23-12.07-9.58-23.06-20.31-33.95-31.17-4.03-4.37-8.3-9.11-6.85,1.31,19.99,137.13,203.56,189.65,306.48,106.83,53.66-37.04,73.95-101.56,113.9-150.18,10.15-11.89,22.81-27.46,38.55-32.3-57.07.32-105.89,40.45-142.67,80.28ZM412.7,782.19c-34.43,41.42-78.64,59.79-129.69,63.13-58.3,2.09-129.12-23.03-152.11-80.94-.16-.45-3.07-11.15-2.25-10.95,19.09,19.46,39.8,36.88,64.88,47.94,60.8,26.58,133.75,20.97,188.57-17.03h.01c23.2-15.14,41.25-35.32,60.06-55.5-5.55,25.97-15.56,35.51-29.47,53.35Z"/>
    <path d="M542.96,566.05c-.11.04-.23.09-.34.13h0,0c-.05-.09-.09-.17-.13-.25-103.13-27.54-179.61,73.77-271.35,99.54-54.52,17.8-127.06-1.21-148.16-60.03-16.06,27.35-22.82,67.09-2.97,94.07h.01c21.72,26.04,63.32,9.06,78.28-16.23-8.39,14.19,16.08,46.63,25.27,55.17,40.22,37.41,103.32,12.96,141.77-16.37,62.36-47.56,101.33-127.65,177.62-156.03,0,0,0,0,0,0ZM167.36,693.46c-6.88,8.6-18.86,12.03-29.62,9.64,11.56-3.96,24.16-21.8,22.5-42.51l14.76,7.7c2.79,10.64-.75,16.57-7.64,25.17ZM349.25,704.04c-9.07,18.85-29.38,31.73-50.3,31.91,19.7-12.28,32.6-38.6,20.69-76.2l23.17-14.93c12.91,16.46,15.51,40.37,6.44,59.22Z"/>
  </g>
  <g id="freddy-eyes">
    <path d="M382.11,784.34h-.01c-54.82,37.99-127.77,43.61-188.57,17.03-25.08-11.06-45.78-28.48-64.88-47.94-.82-.2,2.09,10.5,2.25,10.95,22.98,57.91,93.81,83.03,152.11,80.94,51.06-3.35,95.26-21.71,129.69-63.13,13.91-17.84,23.92-27.38,29.47-53.35-18.81,20.18-36.86,40.36-60.06,55.5Z" fill="#fff"/>
    <path d="M319.64,659.75c11.91,37.6-.99,63.92-20.69,76.2,20.92-.18,41.23-13.06,50.3-31.91s6.47-42.76-6.44-59.22l-23.17,14.93Z" fill="#fff"/>
    <path d="M160.24,660.59c1.66,20.71-10.94,38.55-22.5,42.51,10.76,2.39,22.74-1.04,29.62-9.64,6.89-8.6,10.43-14.53,7.64-25.17l-14.76-7.7Z" fill="#fff"/>
  </g>
</svg>