<svg width="90" height="39" viewBox="0 0 90 39" fill="none" xmlns="http://www.w3.org/2000/svg">
<g clip-path="url(#clip0_2_3)">
<path d="M19.44 3.64L17.98 14.29H11.22L12.69 3.64H4.43999L0.179993 34.78H8.38999L10.16 21.96H16.93L15.18 34.78H23.41L27.71 3.64H19.44Z" fill="#F2F2F7"/>
<path d="M81.94 3.64L80.48 14.3H73.72L75.19 3.64H66.94C66.94 3.64 65.59 13.5 65.06 17.35H47.84L46.81 25.26H54.47C53.99 25.76 53.46 26.18 52.88 26.52C51.61 27.27 50.22 27.64 48.65 27.64C46.59 27.64 44.91 26.95 43.51 25.52C42.1 24.09 41.42 22.35 41.42 20.22C41.42 18.09 42.12 16 43.55 14.16C45.32 11.89 47.56 10.78 50.38 10.78C51.66 10.78 52.82 11.02 53.8 11.49C54.81 11.97 55.9 12.88 57.04 14.18L57.87 15.12L64.68 10.7L63.68 9.45C62.48 7.95 61.2 6.72 59.87 5.81C58.54 4.9 57.03 4.18 55.38 3.68C53.74 3.18 52.03 2.92 50.31 2.92C45.65 2.92 41.59 4.64 38.23 8.04C37.22 9.06 36.36 10.14 35.66 11.28L36.73 3.64H28.61L24.35 34.79H32.36L33.77 24.72C34.34 26.74 35.31 28.58 36.67 30.22C39.57 33.73 43.58 35.51 48.6 35.51C58.05 35.51 62.51 28.94 63.84 26.28L62.68 34.8H70.89L72.66 21.97H79.43L77.68 34.8H85.91L90.21 3.65H81.94V3.64Z" fill="#F2F2F7"/>
</g>
<defs>
<clipPath id="clip0_2_3">
<rect width="90" height="38.42" fill="white"/>
</clipPath>
</defs>
</svg>
